<?xml version="1.0" encoding="UTF-8"?>
<svg xmlns="http://www.w3.org/2000/svg" width="128" height="128" viewBox="0 0 128 128">
  <defs>
    <linearGradient id="bg" x1="0" y1="0" x2="0" y2="1">
      <stop offset="0" stop-color="#1c1c2b"/>
      <stop offset="1" stop-color="#10101a"/>
    </linearGradient>
  </defs>
  <rect x="4" y="4" width="120" height="120" rx="22" fill="url(#bg)" stroke="#3a3a55" stroke-width="2"/>
  <g stroke="#2e2e44" stroke-width="1">
    <line x1="12" y1="44" x2="116" y2="44"/>
    <line x1="12" y1="72" x2="116" y2="72"/>
    <line x1="12" y1="100" x2="116" y2="100"/>
  </g>
  <path d="M12 116 L12 78 L30 84 L48 64 L66 74 L84 52 L102 60 L116 42 L116 116 Z" fill="#f5a623" opacity="0.55"/>
  <path d="M12 116 L12 92 L34 96 L52 80 L72 90 L92 70 L116 78 L116 116 Z" fill="#7b5cd6" opacity="0.7"/>
  <path d="M12 116 L12 102 L32 106 L54 94 L76 102 L98 88 L116 94 L116 116 Z" fill="#27c8e8" opacity="0.85"/>
  <path d="M12 102 L32 106 L54 94 L76 102 L98 88 L116 94" fill="none" stroke="#5fe3ff" stroke-width="3" stroke-linejoin="round" stroke-linecap="round"/>
</svg>
